<?xml version="1.0" standalone="no"?>
<svg viewBox="0 0 200 200" xmlns="http://www.w3.org/2000/svg">
  <path fill="#8A3FFC" d="M47.9,-63.9C59.1,-57.7,63.3,-39.8,63.3,-24.2C63.3,-8.7,59.1,4.6,54.7,17.7C50.3,30.7,45.6,43.5,36.5,49.7C27.3,55.8,13.7,55.3,-0.5,56C-14.7,56.8,-29.4,58.8,-44.3,54.5C-59.2,50.2,-74.2,39.6,-77.2,26.1C-80.2,12.6,-71.2,-3.8,-63,-17.8C-54.8,-31.8,-47.4,-43.4,-37,-49.9C-26.7,-56.4,-13.3,-57.8,2.5,-61.3C18.3,-64.7,36.6,-70.1,47.9,-63.9Z" transform="translate(100 100)" />
</svg>
