<?xml version="1.0" standalone="no"?>
<svg viewBox="0 0 200 200" xmlns="http://www.w3.org/2000/svg">
  <path fill="#8A3FFC" d="M43.4,-63.1C56.3,-59.4,66.6,-47.2,74.8,-33C83,-18.8,89.2,-2.6,88.1,13.5C87.1,29.5,78.8,45.3,66,53.5C53.2,61.8,35.9,62.4,19.9,66.6C3.9,70.8,-10.7,78.4,-25.3,77.9C-39.9,77.4,-54.6,68.7,-63.3,56.2C-72.1,43.7,-74.9,27.4,-78.4,10.6C-81.9,-6.3,-86.2,-23.8,-78.2,-33.5C-70.3,-43.1,-50.2,-44.9,-35.1,-47.7C-20,-50.4,-10,-54.1,2.7,-58.3C15.3,-62.4,30.6,-66.9,43.4,-63.1Z" transform="translate(100 100)" />
</svg>
