<?xml version="1.0" standalone="no"?>
<svg viewBox="0 0 200 200" xmlns="http://www.w3.org/2000/svg">
  <path fill="#8A3FFC" d="M45.9,-66.5C60.3,-62.1,73.6,-50.9,73,-37.6C72.4,-24.4,58,-9.1,55.7,8.1C53.3,25.2,63.1,44.2,59.2,54.6C55.3,64.9,37.7,66.8,21.6,69.9C5.4,73,-9.3,77.5,-23.4,75.3C-37.4,73.2,-50.7,64.3,-56.6,52.1C-62.5,39.9,-60.9,24.2,-62.3,9.4C-63.6,-5.3,-68,-19.2,-61.6,-26C-55.2,-32.8,-37.9,-32.5,-25.9,-38.1C-13.8,-43.6,-6.9,-54.9,4.4,-61.8C15.7,-68.6,31.4,-70.9,45.9,-66.5Z" transform="translate(100 100)" />
</svg>
