<?xml version="1.0" standalone="no"?>
<svg viewBox="0 0 200 200" xmlns="http://www.w3.org/2000/svg">
  <path fill="#8A3FFC" d="M29.6,-43.4C39.9,-33.2,51.1,-26.7,61.5,-15.2C71.9,-3.6,81.6,13,73.7,19.8C65.8,26.6,40.3,23.5,25.1,22.9C9.9,22.4,4.9,24.3,-4.4,30.5C-13.8,36.6,-27.6,46.8,-39.3,46.2C-51,45.6,-60.5,34.2,-65.8,20.7C-71.2,7.2,-72.3,-8.3,-66.2,-19.8C-60.1,-31.2,-46.8,-38.6,-34.5,-48.3C-22.3,-57.9,-11.1,-69.8,-0.8,-68.7C9.6,-67.7,19.2,-53.7,29.6,-43.4Z" transform="translate(100 100)" />
</svg>
